<?xml version="1.0" encoding="utf-8"?>
<svg viewBox="0 0 500 500" xmlns="http://www.w3.org/2000/svg" xmlns:bx="https://boxy-svg.com">
  <defs>
    <bx:grid x="0" y="0" width="100" height="100"/>
    <filter id="gaussian-blur-filter-1" color-interpolation-filters="sRGB" x="-50%" y="-50%" width="200%" height="200%" bx:preset="gaussian-blur 1 3.9">
      <feGaussianBlur stdDeviation="3.9 3.9" edgeMode="none"/>
    </filter>
    <filter id="motion-blur-filter-0" color-interpolation-filters="sRGB" x="-50%" y="-50%" width="200%" height="200%" bx:preset="motion-blur 1 45 horizontal">
      <feGaussianBlur stdDeviation="45 0" edgeMode="none"/>
    </filter>
  </defs>
  <path stroke-width="0" d="M 162.12 111.591 C 164.479 111.181 168.066 111.254 170.791 112.379 C 173.744 113.599 175.563 114.815 179.067 119.08 C 185.859 127.345 203.559 166.155 207.839 166.769 C 210.404 167.137 208.201 155.374 209.809 151.398 C 211.134 148.123 213.041 145.556 215.721 143.91 C 218.588 142.149 222.53 140.47 226.757 141.545 C 232.653 143.044 241.843 151.392 247.645 156.916 C 252.952 161.968 257.421 173.018 260.652 173.075 C 263.154 173.119 262.831 165.837 266.169 163.616 C 270.49 160.741 280.318 159.151 286.664 159.675 C 292.607 160.165 298.091 162.964 303.217 165.981 C 308.492 169.085 313.886 173.559 317.8 178.199 C 321.568 182.666 324.854 187.479 326.471 193.176 C 328.215 199.319 322.701 210.767 327.259 214.064 C 333.133 218.313 358.265 206.947 366.278 208.546 C 371.134 209.516 373.433 212.223 375.343 215.247 C 377.304 218.353 378.439 223.451 377.707 227.07 C 376.979 230.673 373.153 235.019 371.007 236.924 C 369.52 238.243 366.444 238.241 366.672 238.894 C 366.994 239.82 375.78 240.351 377.707 241.653 C 378.864 242.435 378.687 242.94 379.284 244.412 C 380.363 247.073 383.996 253.095 383.225 257.812 C 382.315 263.376 377.293 270.751 371.795 275.548 C 365.715 280.854 356.148 284.496 347.36 287.372 C 338.204 290.368 323.204 286.726 317.8 292.89 C 312.151 299.332 318.399 317.323 315.435 326.39 C 312.924 334.072 308.607 341.055 303.217 344.914 C 298.099 348.579 290.419 350.38 284.299 349.644 C 278.062 348.893 272.72 340.155 266.169 340.185 C 258.91 340.218 249.117 349.921 242.522 352.009 C 237.601 353.566 234.113 354.273 229.91 353.585 C 225.442 352.854 222.722 348.602 216.509 347.279 C 207.393 345.338 187.036 348.898 177.885 346.491 C 171.439 344.796 166.862 341.206 164.09 338.214 C 162.02 335.979 162.082 335.864 160.937 331.12 C 157.912 318.58 147.991 260.089 149.902 243.624 C 150.893 235.082 153.762 231.128 157.39 228.253 C 160.585 225.721 167.791 229.856 169.608 225.888 C 172.852 218.806 157.083 184.651 157.784 174.257 C 158.176 168.454 163.256 168.476 163.302 163.222 C 163.375 154.862 149.898 134.439 149.902 126.174 C 149.904 121.069 153.518 117.407 155.026 115.533 C 155.878 114.472 156.409 114.521 157.39 113.956 C 158.649 113.232 160.187 111.928 162.12 111.591 Z M 363.519 239.288 L 363.519 240.077 Z M 357.213 240.077 C 355.509 240.212 351.054 241.714 350.907 242.441 C 350.793 243.003 352.775 244.062 354.06 244.018 C 355.755 243.959 360.303 241.516 360.366 240.865 C 360.412 240.387 358.486 239.975 357.213 240.077 Z M 314.647 244.806 C 313.745 244.568 313.326 245.781 313.07 247.171 C 312.572 249.879 312.201 260.116 314.647 262.148 C 316.816 263.949 324.961 262.745 325.683 260.571 C 326.58 257.867 316.586 245.319 314.647 244.806 Z M 187.738 288.16 L 187.738 288.948 Z M 188.526 291.313 C 188.396 291.296 187.584 293.373 187.738 293.678 C 187.835 293.87 188.367 293.877 188.526 293.678 C 188.774 293.369 188.654 291.33 188.526 291.313 Z M 189.315 293.678 C 188.389 293.746 190.737 311.538 190.891 314.961 C 190.955 316.381 190.319 316.855 190.891 317.326 C 191.739 318.022 196.419 318.99 197.197 317.326 C 198.545 314.441 190.299 293.605 189.315 293.678 Z M 246.069 298.407 C 243.101 297.71 226.966 297.51 224.786 300.772 C 222.885 303.618 226.638 312.748 230.304 314.961 C 234.241 317.338 246.871 315.081 248.434 313.384 C 249.307 312.436 247.082 311.165 246.857 309.443 C 246.547 307.067 248.152 301.717 247.645 299.984 C 247.361 299.013 247.27 298.69 246.069 298.407 Z M 286.27 301.56 C 284.775 300.547 279.068 302.784 278.387 304.713 C 277.644 306.82 281.507 312.441 283.117 314.173 C 284.154 315.288 285.615 316.042 286.27 315.749 C 286.904 315.465 286.956 314.104 287.058 312.596 C 287.224 310.135 287.932 302.687 286.27 301.56 Z" style="stroke-width: 2px; fill: rgb(249, 151, 109); filter: url(#gaussian-blur-filter-1) url(#motion-blur-filter-0);"/>
</svg>